<svg xmlns="http://www.w3.org/2000/svg" viewBox="0 0 68 68"><path fill="#435e88" d="m16.758 20.78 3.994-3.995 6.807 6.807-3.995 3.994zM10.066 6.393c.767.767.962 1.896.565 2.837l3.094 3.095a.99.99 0 0 1 0 1.394.98.98 0 0 1-1.394 0l-3.094-3.095a2.59 2.59 0 0 1-2.844-.558 2.597 2.597 0 0 1 3.673-3.673M18.362 46.04l7.144-7.144 3.602 3.601-7.145 7.145zM49.613 21.992l-7.145 7.145-3.601-3.601 7.144-7.145z"/><path fill="#c175ff" d="m17.6 41.557 8.84 8.838a2.793 2.793 0 0 1 0 3.945L15.565 65.214a2.785 2.785 0 0 1-3.938-.007l-8.839-8.838a2.777 2.777 0 0 1 0-3.931l10.874-10.874a2.785 2.785 0 0 1 3.938-.007m21.742 9.786c3.334 2.98 8.45 2.88 11.652-.321s3.302-8.318.32-11.652z"/><path fill="#b244f1" d="M51.315 39.376a8.47 8.47 0 0 1-.32 11.64q-.583.584-1.24 1.031a8.47 8.47 0 0 0-.705-10.406z"/><path fill="#c175ff" d="M22.063 3.916c3.743 5.008 3.332 12.136-1.22 16.688-4.545 4.545-11.673 4.956-16.681 1.213-.79-.58-.9-1.722-.202-2.42L19.643 3.714c.698-.698 1.84-.587 2.42.202"/><path fill="#b244f1" d="M22.062 3.919a12.78 12.78 0 0 1-1.22 16.68c-.481.48-.99.92-1.527 1.302 3.283-4.51 3.263-10.678-.083-15.153-.578-.787-1.722-.899-2.419-.202l2.83-2.83c.697-.696 1.84-.585 2.419.203"/><path fill="#e5e8ef" d="m33.305 16.137 18.554 18.555a3.256 3.256 0 0 1 0 4.6L39.264 51.887a3.256 3.256 0 0 1-4.6 0L16.11 33.333a3.247 3.247 0 0 1 .007-4.594l12.595-12.595a3.25 3.25 0 0 1 4.594-.007"/><path fill="#cdd4df" d="m33.305 16.137 18.554 18.555a3.256 3.256 0 0 1 0 4.6L39.264 51.887a3.256 3.256 0 0 1-4.6 0l-5.953-35.743a3.25 3.25 0 0 1 4.594-.007"/><circle cx="33.988" cy="34.016" r="7.557" fill="#5cbeff"/><path fill="#ffd80c" d="m20.347 44.304-1.394-1.394-4.182 4.182-3.318-3.318-1.394 1.394 3.318 3.318-3.66 3.66L6.4 48.826l-1.394 1.394 3.318 3.318-4.182 4.182 1.394 1.394 4.182-4.182 3.352 3.353-4.182 4.182 1.394 1.394 4.182-4.182 3.318 3.318 1.394-1.395-3.318-3.317 3.66-3.66 3.318 3.318 1.394-1.394-3.318-3.318 4.182-4.182-1.394-1.394-4.182 4.182-3.353-3.352zm-2.223 8.928-3.66 3.66-3.352-3.353 3.66-3.66z"/><path fill="#c175ff" d="m56.372 2.786 8.838 8.838a2.793 2.793 0 0 1 0 3.945L54.338 26.443a2.785 2.785 0 0 1-3.938-.007l-8.838-8.839a2.777 2.777 0 0 1 0-3.93L52.434 2.792a2.785 2.785 0 0 1 3.938-.007"/><path fill="#ffd80c" d="m59.119 5.532-1.394-1.394-4.182 4.182-3.318-3.318-1.394 1.394 3.318 3.318-3.66 3.66-3.318-3.318-1.394 1.394 3.318 3.318-4.182 4.182 1.394 1.394 4.182-4.182 3.353 3.352-4.182 4.182 1.394 1.394 4.182-4.182 3.318 3.318 1.394-1.394-3.318-3.318 3.659-3.66 3.318 3.319 1.394-1.394-3.318-3.318 4.182-4.182-1.394-1.394-4.182 4.182-3.352-3.353zm-2.224 8.929-3.66 3.66-3.352-3.353 3.66-3.66z"/><path fill="#079cff" d="M39.334 28.676a7.552 7.552 0 0 1-4.74 12.867l-1.714-15a7.53 7.53 0 0 1 6.454 2.133"/></svg>